<svg width="16" height="16" viewBox="0 0 16 16" fill="none" xmlns="http://www.w3.org/2000/svg">
<path d="M15 7.97046H1C0.448656 7.97046 0 8.41912 0 8.97046C0 9.5218 0.448656 9.97046 1 9.97046H15C15.5513 9.97046 16 9.5218 16 8.97046C16 8.41912 15.5513 7.97046 15 7.97046Z" fill="#0984E3"/>
<path d="M15.092 9.3164C14.9113 9.26574 14.73 9.3684 14.68 9.54574L14.654 9.63709H1.34662L1.31996 9.54574C1.26996 9.3684 1.0873 9.26709 0.90796 9.3164C0.730616 9.36706 0.628616 9.55174 0.679304 9.7284L1.59796 12.9444C1.88262 13.9411 2.8053 14.6371 3.8413 14.6371H12.158C13.1946 14.6371 14.1166 13.9411 14.4013 12.9444L15.32 9.7284C15.3713 9.55171 15.2686 9.36706 15.092 9.3164ZM3.84196 13.3037C3.39796 13.3037 3.00196 13.0057 2.88062 12.5784L2.44796 11.0624C2.3973 10.885 2.49996 10.701 2.67662 10.6504C2.85527 10.5997 3.03862 10.703 3.08862 10.8797L3.52127 12.3957C3.56262 12.5377 3.69393 12.6377 3.84193 12.6377C4.02593 12.6377 4.17527 12.7871 4.17527 12.9711C4.1753 13.1551 4.02596 13.3037 3.84196 13.3037Z" fill="#0984E3"/>
<path d="M4.482 14.0049C4.31734 13.9243 4.118 13.9889 4.03466 14.1543L3.368 15.4876C3.286 15.6523 3.35266 15.8523 3.51734 15.935C3.566 15.959 3.61669 15.9703 3.66669 15.9703C3.78869 15.9703 3.90603 15.903 3.96469 15.7857L4.63134 14.4523C4.71334 14.2876 4.64666 14.0876 4.482 14.0049Z" fill="#0984E3"/>
<path d="M12.632 15.4885L11.9653 14.1551C11.8827 13.9898 11.6827 13.9238 11.518 14.0058C11.3533 14.0884 11.2866 14.2884 11.3686 14.4531L12.0353 15.7865C12.0939 15.9031 12.2113 15.9705 12.3333 15.9705C12.3833 15.9705 12.4339 15.9591 12.4826 15.9358C12.6473 15.8531 12.714 15.6531 12.632 15.4885Z" fill="#0984E3"/>
<path d="M13.39 0.029541C13.05 0.029541 12.73 0.162197 12.4893 0.402885L11.4313 1.46088C11.3013 1.59088 11.3013 1.80223 11.4313 1.93223C11.5613 2.06223 11.7727 2.06223 11.9027 1.93223L12.9606 0.874885C13.0746 0.760228 13.2273 0.696885 13.3933 0.696885C13.728 0.696885 14 0.968885 14 1.30354V8.30354C14 8.48754 14.1493 8.63688 14.3333 8.63688C14.5173 8.63688 14.6666 8.48754 14.6673 8.30288V1.30288C14.6673 0.600885 14.0966 0.029541 13.39 0.029541Z" fill="#0984E3"/>
<path d="M12.236 1.7944L11.5694 1.12775C11.4934 1.05175 11.3874 1.0164 11.2794 1.0344L9.61271 1.30775C9.49005 1.32775 9.38936 1.4144 9.35005 1.53175C9.31071 1.64909 9.34071 1.77975 9.42739 1.8684L11.4274 3.9284C11.4907 3.9944 11.578 4.02975 11.666 4.02975C11.6974 4.02975 11.7294 4.02509 11.7607 4.01575C11.8794 3.98109 11.9694 3.88309 11.9934 3.76175L12.3267 2.09509C12.3487 1.9864 12.3147 1.87372 12.236 1.7944Z" fill="#0984E3"/>
<path d="M7.90199 4.06845C7.77199 3.93845 7.56064 3.93845 7.43064 4.06845L6.76399 4.7351C6.63399 4.8651 6.63399 5.07645 6.76399 5.20645C6.82933 5.2711 6.91464 5.30379 6.99999 5.30379C7.08533 5.30379 7.17064 5.27114 7.23533 5.20645L7.90199 4.53979C8.03199 4.40976 8.03199 4.19845 7.90199 4.06845Z" fill="#0984E3"/>
<path d="M9.23537 5.4017C9.10536 5.2717 8.89402 5.2717 8.76402 5.4017L8.09736 6.06836C7.96736 6.19836 7.96736 6.4097 8.09736 6.5397C8.16271 6.60436 8.24802 6.63704 8.33336 6.63704C8.41871 6.63704 8.50402 6.60439 8.56871 6.5397L9.23537 5.87304C9.36537 5.74304 9.36537 5.5317 9.23537 5.4017Z" fill="#0984E3"/>
<path d="M9.90199 3.4017C9.77199 3.2717 9.56065 3.2717 9.43065 3.4017L8.76399 4.06836C8.63399 4.19836 8.63399 4.4097 8.76399 4.5397C8.82933 4.60436 8.91465 4.63704 8.99999 4.63704C9.08533 4.63704 9.17065 4.60439 9.23533 4.5397L9.90199 3.87304C10.032 3.74304 10.032 3.5317 9.90199 3.4017Z" fill="#0984E3"/>
</svg>
