<svg width="16" height="14" viewBox="0 0 16 14" fill="none" xmlns="http://www.w3.org/2000/svg">
<path d="M1.32778 7.95164H14.6721C15.2221 7.95164 15.668 7.5058 15.668 6.9558C15.668 6.4058 15.2221 5.95996 14.6721 5.95996H1.32778C0.777776 5.95996 0.331932 6.4058 0.331932 6.9558C0.331901 7.5058 0.777776 7.95164 1.32778 7.95164Z" fill="#0984E3"/>
<path d="M8.99584 3.81201C8.70519 3.81201 8.46875 4.04845 8.46875 4.33911V5.02245H12.5481V4.33911C12.5481 4.04845 12.3117 3.81201 12.021 3.81201H8.99584Z" fill="#0984E3"/>
<path d="M2.5144 4.3391C2.5144 3.53151 3.1714 2.87451 3.97899 2.87451H7.00415C7.38846 2.87451 7.73846 3.02351 7.99999 3.26651C8.26152 3.02351 8.61152 2.87451 8.99583 2.87451H12.021C12.8286 2.87451 13.4856 3.53151 13.4856 4.3391V5.02245H15.0071V1.7937C15.0071 1.2437 14.5612 0.797852 14.0113 0.797852H1.98874C1.43874 0.797852 0.992897 1.2437 0.992897 1.7937V5.02245H2.5144V4.3391Z" fill="#0984E3"/>
<path d="M3.97904 3.81201C3.68839 3.81201 3.45195 4.04845 3.45195 4.33911V5.02245H7.53129V4.33911C7.53129 4.04845 7.29486 3.81201 7.0042 3.81201H3.97904Z" fill="#0984E3"/>
<path d="M0 8.88916V13.2022H0.9375V11.4929H15.0625V13.2022H16V8.88916H0Z" fill="#0984E3"/>
</svg>
