<svg width="16" height="16" viewBox="0 0 16 16" fill="none" xmlns="http://www.w3.org/2000/svg">
<path d="M1.32778 8.95164H14.6721C15.2221 8.95164 15.668 8.5058 15.668 7.9558C15.668 7.4058 15.2221 6.95996 14.6721 6.95996H1.32778C0.777776 6.95996 0.331932 7.4058 0.331932 7.9558C0.331901 8.5058 0.777776 8.95164 1.32778 8.95164V8.95164Z" fill="#0984E3"/>
<path d="M8.99584 4.81201C8.70519 4.81201 8.46875 5.04845 8.46875 5.33911V6.02245H12.5481V5.33911C12.5481 5.04845 12.3117 4.81201 12.021 4.81201H8.99584Z" fill="#0984E3"/>
<path d="M2.5144 5.3391C2.5144 4.53151 3.1714 3.87451 3.97899 3.87451H7.00415C7.38846 3.87451 7.73846 4.02351 7.99999 4.26651C8.26152 4.02351 8.61152 3.87451 8.99583 3.87451H12.021C12.8286 3.87451 13.4856 4.53151 13.4856 5.3391V6.02245H15.0071V2.7937C15.0071 2.2437 14.5612 1.79785 14.0113 1.79785H1.98874C1.43874 1.79785 0.992897 2.2437 0.992897 2.7937V6.02245H2.5144V5.3391Z" fill="#0984E3"/>
<path d="M3.97904 4.81201C3.68839 4.81201 3.45195 5.04845 3.45195 5.33911V6.02245H7.53129V5.33911C7.53129 5.04845 7.29486 4.81201 7.0042 4.81201H3.97904Z" fill="#0984E3"/>
<path d="M0 9.88916V14.2022H0.9375V12.4929H15.0625V14.2022H16V9.88916H0Z" fill="#0984E3"/>
</svg>
