<svg width="16" height="16" viewBox="0 0 16 16" fill="none" xmlns="http://www.w3.org/2000/svg">
<path d="M14.125 4.71875V11.2812H6.5625V4.71875C5.52863 4.71875 4.6875 5.55988 4.6875 6.59375V14.0938H5.625V13.1562H15.0625V14.0938H16V6.59375C16 5.55988 15.1589 4.71875 14.125 4.71875Z" fill="#0984E3"/>
<path d="M0.9375 10.3438H0V14.0938H0.9375V10.3438Z" fill="#0984E3"/>
<path d="M3.75 10.3438H2.8125V14.0938H3.75V10.3438Z" fill="#0984E3"/>
<path d="M2.34375 7.53125V6.59375H1.40625V7.53125H0V9.40625H3.75V7.53125H2.34375Z" fill="#0984E3"/>
<path d="M3.42375 1.90625H0.32625L0 5.13259V5.65625H3.75V5.13259L3.42375 1.90625Z" fill="#0984E3"/>
<path d="M12.25 8.46875H8.4375C7.92056 8.46875 7.5 8.88931 7.5 9.40625V10.3438H13.1875V9.40625C13.1875 8.88931 12.7669 8.46875 12.25 8.46875Z" fill="#0984E3"/>
<path d="M12.25 2.84375H8.4375C7.92056 2.84375 7.5 3.26431 7.5 3.78125V7.7835C7.77603 7.62341 8.09609 7.53125 8.4375 7.53125H12.25C12.5914 7.53125 12.9115 7.62341 13.1875 7.7835V3.78125C13.1875 3.26431 12.7669 2.84375 12.25 2.84375Z" fill="#0984E3"/>
</svg>
