<svg width="42" height="42" viewBox="0 0 42 42" fill="none" xmlns="http://www.w3.org/2000/svg">
<g clip-path="url(#clip0_155_91)">
<path d="M21 16.9502C24.9415 16.9502 28.1367 13.755 28.1367 9.81348C28.1367 5.87198 24.9415 2.67676 21 2.67676C17.0585 2.67676 13.8633 5.87198 13.8633 9.81348C13.8633 13.755 17.0585 16.9502 21 16.9502Z" fill="white"/>
<path d="M35.4375 16.9502C37.9293 16.9502 39.9492 14.9302 39.9492 12.4385C39.9492 9.94673 37.9293 7.92676 35.4375 7.92676C32.9457 7.92676 30.9258 9.94673 30.9258 12.4385C30.9258 14.9302 32.9457 16.9502 35.4375 16.9502Z" fill="white"/>
<path d="M6.5625 16.9502C9.05425 16.9502 11.0742 14.9302 11.0742 12.4385C11.0742 9.94673 9.05425 7.92676 6.5625 7.92676C4.07075 7.92676 2.05078 9.94673 2.05078 12.4385C2.05078 14.9302 4.07075 16.9502 6.5625 16.9502Z" fill="white"/>
<path d="M11.0078 21.0016C9.2318 19.5465 7.62341 19.7392 5.56992 19.7392C2.49867 19.7392 0 22.2231 0 25.2754V34.2341C0 35.5597 1.08199 36.6376 2.41254 36.6376C8.15686 36.6376 7.46484 36.7415 7.46484 36.3899C7.46484 30.0418 6.71295 25.3864 11.0078 21.0016V21.0016Z" fill="white"/>
<path d="M22.9532 19.7721C19.3664 19.4729 16.2488 19.7755 13.5598 21.9951C9.05977 25.5996 9.92578 30.4528 9.92578 36.39C9.92578 37.9608 11.2038 39.2627 12.7985 39.2627C30.1138 39.2627 30.803 39.8212 31.8298 37.5474C32.1665 36.7785 32.0742 37.0228 32.0742 29.6667C32.0742 23.8239 27.0151 19.7721 22.9532 19.7721V19.7721Z" fill="white"/>
<path d="M36.4305 19.7392C34.3658 19.7392 32.7663 19.5486 30.9927 21.0017C35.2554 25.3539 34.5356 29.6916 34.5356 36.3899C34.5356 36.7438 33.9611 36.6376 39.5018 36.6376C40.8799 36.6376 42.0005 35.5212 42.0005 34.1488V25.2755C42.0005 22.2231 39.5018 19.7392 36.4305 19.7392Z" fill="white"/>
</g>
<defs>
<clipPath id="clip0_155_91">
<rect width="42" height="42" fill="white"/>
</clipPath>
</defs>
</svg>
