<svg width="42" height="42" viewBox="0 0 42 42" fill="none" xmlns="http://www.w3.org/2000/svg">
<g clip-path="url(#clip0_155_48)">
<path d="M4.37497 18.375C1.9635 18.375 0 20.3385 0 22.75V36.75C0 39.1615 1.9635 41.125 4.37497 41.125H9.62497C10.6102 41.125 11.5167 40.7925 12.25 40.2394V18.375H4.37497Z" fill="white"/>
<path d="M42 24.9375C42 23.8858 41.5835 22.9057 40.8607 22.1829C41.678 21.2887 42.0945 20.0899 41.9807 18.8422C41.7759 16.6179 39.7722 14.8749 37.4167 14.8749H26.607C27.1425 13.2492 27.9999 10.269 27.9999 7.87497C27.9999 4.07922 24.7747 0.875 22.7499 0.875C20.9317 0.875 19.6332 1.89875 19.5772 1.94075C19.3707 2.10703 19.25 2.35903 19.25 2.62497V8.5592L14.21 19.4775L14 19.5842V38.3407C15.4245 39.0127 17.2269 39.375 18.375 39.375H34.4382C36.344 39.375 38.0118 38.0904 38.4037 36.3177C38.6049 35.406 38.4877 34.4872 38.087 33.6892C39.3802 33.0382 40.25 31.7064 40.25 30.1875C40.25 29.568 40.1082 28.9747 39.8388 28.4375C41.132 27.7865 42 26.4547 42 24.9375Z" fill="white"/>
</g>
<defs>
<clipPath id="clip0_155_48">
<rect width="42" height="42" fill="white"/>
</clipPath>
</defs>
</svg>
